# xmcd CD database file
#
# Track frame offsets:
#	150
#	9937
#	33221
#	60105
#	84174
#	119686
#	143571
#	166728
#	188528
#	213488
#	237165
#	262259
#	281399
#	312816
#
# Disc length: 4459 seconds
#
# Revision: 0
# Processed by: cddbd v1.4PL0 Copyright (c) Steve Scherf et al.
# Submitted via: CDex 1.50
#
DISCID=aa11690e
DTITLE=Varios (Manu) - Amsterdammed
DYEAR=2002
DGENRE=New Age
TTITLE0=Holiday Road (Lindsay Buckingham)
TTITLE1=Unfinished Sympathy (Massive Attack)
TTITLE2=Man Next Door (Massive Attack)
TTITLE3=Safe From Harm (Massive Attack)
TTITLE4=Protection (Massive Attack)
TTITLE5=Karmacoma (Massive Attack)
TTITLE6=Eurochild (Massive Attack)
TTITLE7=One Love (Massive Attack)
TTITLE8=Teardrop (Massive Attack)
TTITLE9=Block Rockin' Beats (Chemical Brothers)
TTITLE10=Leave Home (Chemical Brothers)
TTITLE11=One Too Many Mornings (Chemical Brothers)
TTITLE12=Where Do I Begin (Chemical Brothers)
TTITLE13=Chico's Groove (Chemical Brothers)
EXTD=YEAR: 2002
EXTT0=
EXTT1=
EXTT2=
EXTT3=
EXTT4=
EXTT5=
EXTT6=
EXTT7=
EXTT8=
EXTT9=
EXTT10=
EXTT11=
EXTT12=
EXTT13=
PLAYORDER=
